<?xml version="1.0" encoding="utf-8"?>
<!-- Generator: Adobe Illustrator 25.0.1, SVG Export Plug-In . SVG Version: 6.00 Build 0)  -->
<svg version="1.1" id="레이어_1" xmlns="http://www.w3.org/2000/svg" xmlns:xlink="http://www.w3.org/1999/xlink" x="0px"
	 y="0px" viewBox="0 0 72 147" style="enable-background:new 0 0 72 147;" xml:space="preserve">
<style type="text/css">
	.st0{fill:#F39A9A;}
	.st1{fill:#FFFFFF;}
	.st2{fill:#F2F2F2;}
	.st3{fill:#B2B2B2;}
	.st4{fill:#B2B2B2;stroke:#B2B2B2;stroke-width:0.8839;stroke-miterlimit:10;}
	.st5{fill:#FFFFFF;stroke:#B2B2B2;stroke-width:0.8839;stroke-miterlimit:10;}
</style>
<g>
	<path class="st0" d="M65.8,71.8H6c-2.8,0-5-2.2-5-5V7c0-2.8,2.2-5,5-5h59.8c2.8,0,5,2.2,5,5v59.8C70.8,69.5,68.5,71.8,65.8,71.8z"
		/>
	<g>
		<g>
			<path class="st1" d="M23,30.5h-7.4c-0.9,0-1.6,0.7-1.6,1.6V55c0,0.9,0.7,1.6,1.6,1.6H23c0.9,0,1.6-0.7,1.6-1.6V32.1
				C24.6,31.2,23.8,30.5,23,30.5z"/>
			<g>
				<path class="st1" d="M60.1,33.2c-0.3-1.6-1.7-2.7-3.3-2.7H43.7c-0.6,0-1-0.5-0.9-1.1l1.4-7.4c0.3-1.4,0.4-2.7,0.4-3.9
					c0-2.5-1.6-4.4-3.5-4.4l0,0c-1.1,0-2.1,1-2.3,2.3l-0.2,1.8c-0.2,1.4-0.7,2.9-1.5,4.3l0,0c-1.2,2-2.6,4-4.2,6l-1.1,1.3
					c-0.6,0.7-1.5,1.1-2.5,1.1c-0.7,0-1.3,0.6-1.3,1.3v18.3v0.8v3.8c0,1.1,0.9,1.9,1.9,1.9h8.7h11.7h1.3c1.6,0,3.1-1.1,3.3-2.7
					c0.3-2-1.2-3.8-3.2-3.8h0.8h1.3c1.6,0,3.1-1.1,3.3-2.7c0.3-2-1.2-3.8-3.2-3.8h0.9c1.6,0,3.1-1.1,3.3-2.7c0.3-2-1.2-3.8-3.2-3.8
					H57C58.9,37,60.4,35.2,60.1,33.2z"/>
			</g>
		</g>
		<circle class="st0" cx="21.5" cy="53.3" r="1.7"/>
	</g>
</g>
<g>
	<g>
		<g>
			<path class="st2" d="M6,144.3c-2.5,0-4.6-2-4.6-4.6V80c0-2.5,2-4.6,4.6-4.6h59.8c2.5,0,4.6,2,4.6,4.6v59.8c0,2.5-2,4.6-4.6,4.6H6
				V144.3z"/>
			<path class="st3" d="M65.8,75.9c2.3,0,4.1,1.8,4.1,4.1v59.8c0,2.3-1.8,4.1-4.1,4.1H6c-2.3,0-4.1-1.8-4.1-4.1V80
				c0-2.3,1.8-4.1,4.1-4.1H65.8 M65.8,75H6c-2.8,0-5,2.2-5,5v59.8c0,2.8,2.2,5,5,5h59.8c2.8,0,5-2.2,5-5V80
				C70.8,77.2,68.5,75,65.8,75L65.8,75z"/>
		</g>
	</g>
	<g>
		<g>
			<path class="st4" d="M23,103.5h-7.4c-0.9,0-1.6,0.7-1.6,1.6V128c0,0.9,0.7,1.6,1.6,1.6H23c0.9,0,1.6-0.7,1.6-1.6v-22.9
				C24.6,104.2,23.8,103.5,23,103.5z"/>
			<path class="st5" d="M60.1,106.2c-0.3-1.6-1.7-2.7-3.3-2.7H43.7c-0.6,0-1-0.5-0.9-1.1l1.4-7.4c0.3-1.4,0.4-2.7,0.4-3.9
				c0-2.5-1.6-4.4-3.5-4.4l0,0c-1.1,0-2.1,1-2.3,2.3l-0.2,1.8c-0.2,1.4-0.7,2.9-1.5,4.3l0,0c-1.2,2-2.6,4-4.2,6l-1.1,1.3
				c-0.6,0.7-1.5,1.1-2.5,1.1c-0.7,0-1.3,0.6-1.3,1.3v18.3v0.8v3.8c0,1.1,0.9,1.9,1.9,1.9h8.7h11.7h1.3c1.6,0,3.1-1.1,3.3-2.7
				c0.3-2-1.2-3.8-3.2-3.8h0.8h1.3c1.6,0,3.1-1.1,3.3-2.7c0.3-2-1.2-3.8-3.2-3.8h0.9c1.6,0,3.1-1.1,3.3-2.7c0.3-2-1.2-3.8-3.2-3.8
				H57C58.9,110,60.4,108.2,60.1,106.2z"/>
		</g>
		<g>
			<circle class="st1" cx="21.5" cy="126.3" r="1.4"/>
		</g>
	</g>
</g>
</svg>
